<?xml version="1.0" encoding="UTF-8"?>
<svg xmlns="http://www.w3.org/2000/svg" viewBox="0 0 691.1 691.1">
  <defs>
    <style>
      .cls-1 {
        fill: #231f20;
      }

      .cls-1, .cls-2, .cls-3 {
        stroke-width: 0px;
      }

      .cls-2 {
        fill: none;
      }

      .cls-3 {
        fill: #fff;
      }
    </style>
  </defs>
  <g id="Layer_2" data-name="Layer 2">
    <circle class="cls-3" cx="345.55" cy="345.55" r="345.55"/>
  </g>
  <g id="logov2">
    <g id="end2">
      <path class="cls-2" d="M449.28,53.68v32.41c-9.97-5.5-20.33-10.19-31-14.03v-18.38h31Z"/>
      <path class="cls-2" d="M439.17,204.45h-20.89v-20.46c7.78,5.95,14.8,12.82,20.89,20.46Z"/>
      <path class="cls-1" d="M449.28,86.09v118.36h-10.11c-6.09-7.64-13.11-14.51-20.89-20.46v-111.93c10.67,3.84,21.03,8.53,31,14.03Z"/>
    </g>
    <g id="end1">
      <path class="cls-2" d="M279.42,53.68v16.14c-10.65,3.43-21.01,7.7-31,12.78v-28.92h31Z"/>
      <path class="cls-2" d="M279.42,179.28v25.17h-27.49c7.78-9.75,17.06-18.25,27.49-25.17Z"/>
      <path class="cls-1" d="M279.42,69.82v109.46c-10.43,6.92-19.71,15.42-27.49,25.17h-3.51v-121.85c9.99-5.08,20.35-9.35,31-12.78Z"/>
    </g>
    <g id="dash">
      <rect class="cls-1" x="330.05" y="208.68" width="31" height="54.33"/>
    </g>
    <g id="divider">
      <path class="cls-2" d="M576.67,256.67v31h-15.19v-12.27c0-6.29-.27-12.54-.8-18.73h15.99Z"/>
      <path class="cls-2" d="M130.41,256.67c-.53,6.19-.8,12.44-.8,18.73v12.27h-15.18v-31h15.98Z"/>
      <path class="cls-2" d="M196.37,256.67c-1.11,7.35-1.68,14.87-1.68,22.52v8.48h-34.08v-12.27c0-6.32.32-12.57.95-18.73h34.81Z"/>
      <path class="cls-1" d="M130.41,256.67h31.15c-.63,6.16-.95,12.41-.95,18.73v12.27h-31v-12.27c0-6.29.27-12.54.8-18.73Z"/>
      <path class="cls-2" d="M530.48,275.4v12.27h-34.07v-8.48c0-7.65-.57-15.17-1.68-22.52h34.8c.63,6.16.95,12.41.95,18.73Z"/>
      <path class="cls-1" d="M494.73,256.67c1.11,7.35,1.68,14.87,1.68,22.52v8.48H194.69v-8.48c0-7.65.57-15.17,1.68-22.52h298.36Z"/>
      <path class="cls-1" d="M561.48,275.4v12.27h-31v-12.27c0-6.32-.32-12.57-.95-18.73h31.15c.53,6.19.8,12.44.8,18.73Z"/>
    </g>
    <g id="innerRing">
      <path class="cls-1" d="M494.73,256.67c-5.11-33.99-21.6-64.29-45.45-86.91-9.29-8.82-19.71-16.46-31-22.7v36.93c7.78,5.95,14.8,12.82,20.89,20.46,11.95,14.92,20.4,32.74,24.11,52.22,1.4,7.29,2.13,14.82,2.13,22.52v117.42c0,33.05-13.44,63.01-35.15,84.71-21.7,21.71-51.66,35.15-84.71,35.15-66.09,0-119.86-53.77-119.86-119.86v-117.42c0-7.7.73-15.23,2.13-22.52,3.71-19.48,12.16-37.3,24.11-52.22,7.78-9.75,17.06-18.25,27.49-25.17v-35.66c-11.18,5.47-21.58,12.28-31,20.23-27.4,23.11-46.48,55.78-52.05,92.82-1.11,7.35-1.68,14.87-1.68,22.52v117.42c0,83.18,67.67,150.86,150.86,150.86s150.86-67.68,150.86-150.86v-117.42c0-7.65-.57-15.17-1.68-22.52Z"/>
      <path class="cls-2" d="M418.28,147.07v36.93c-20.18-15.46-45.4-24.65-72.73-24.65-24.43,0-47.17,7.34-66.13,19.94v-35.66c19.98-9.78,42.43-15.28,66.13-15.28,26.35,0,51.15,6.79,72.73,18.72Z"/>
    </g>
    <g id="outerRing">
      <path class="cls-1" d="M560.68,256.67c-4.35-50.43-26.2-97.37-62.62-133.79-14.7-14.7-31.12-27.03-48.78-36.79-9.97-5.5-20.33-10.19-31-14.03v33.31c10.91,4.68,21.29,10.39,31,17,44.1,29.99,74.62,78.52,80.25,134.3.63,6.16.95,12.41.95,18.73v114.97c0,101.97-82.96,184.93-184.93,184.93s-184.94-82.96-184.94-184.93v-114.97c0-6.32.32-12.57.95-18.73,5.91-58.52,39.22-109.07,86.86-138.59,9.77-6.06,20.14-11.23,31-15.4v-32.86c-10.65,3.43-21.01,7.7-31,12.78-20.19,10.24-38.87,23.77-55.39,40.28-36.42,36.42-58.27,83.36-62.62,133.79-.53,6.19-.8,12.44-.8,18.73v114.97c0,57.45,22.53,111.62,63.42,152.51,40.9,40.9,95.06,63.42,152.52,63.42s111.62-22.52,152.51-63.42c40.9-40.89,63.42-95.06,63.42-152.51v-114.97c0-6.29-.27-12.54-.8-18.73Z"/>
      <path class="cls-2" d="M418.28,72.07v33.31c-22.33-9.6-46.92-14.91-72.73-14.91-23.29,0-45.59,4.33-66.13,12.22v-32.86c21.11-6.82,43.36-10.36,66.13-10.36,25.15,0,49.67,4.32,72.73,12.6Z"/>
    </g>
  </g>
</svg>